<svg xmlns="http://www.w3.org/2000/svg" fill="none" viewBox="0 0 265 172" height="172" width="265"><path fill="#DF4047" d="M264.799 96.89c.122 4.338-.972 8.446-2.474 12.461-3.734 9.995-7.89 19.815-12.737 29.321-1.45 2.84-3.062 5.65-4.977 8.187-5.025 6.648-12.901 7.934-19.819 3.279-2.104-1.416-4.011-3.198-5.771-5.039-7.573-7.92-12.073-17.519-14.624-28.042-1.05-4.334-1.86-8.804-2.059-13.241-.245-5.343.706-10.582 3.512-15.363 3.576-6.093 13.019-9.64 20.041-1.727 2.126 2.393 4.207 4.826 6.337 7.214.647.729 1.442.877 2.226.196 1.287-1.12 2.518-2.307 3.819-3.409 3.461-2.936 7.495-4.836 11.651-6.574 7.635-3.191 14.553 1.63 14.871 9.536.041 1.068.004 2.137.004 3.202Z"/><path fill="#23221E" d="M230.023 42.959c-.503-12.753-.984-24.688-1.438-36.624a48.48 48.48 0 0 1 .044-4.463c.055-1.016 1.257-1.974 2.207-1.863.932.107 1.668.628 1.801 1.534.407 2.736.854 5.484.991 8.238.248 4.903.27 9.817.403 14.724.433 15.995.873 31.99 1.327 47.986.012.414.189.824.285 1.238.529-.314 1.183-.521 1.553-.965.532-.647.836-1.479 1.276-2.21 1.771-2.963 3.878-5.625 6.81-7.536.714-.466 1.413-.999 2.197-1.298 1.664-.64 3.379-.74 4.836.492 1.39 1.172 2.145 2.77 1.708 4.562-.499 2.06-1.079 4.156-2.022 6.042-3.524 7.062-7.247 14.025-10.823 21.061-1.331 2.618-4.145 3.564-5.982 5.613-.529.588-1.66.3-2.374-.252-.492-.38-.961-.88-1.239-1.43-5.147-10.302-10.796-20.363-14.882-31.167-.899-2.377-1.575-4.858-2.126-7.343-.266-1.209-.133-2.551.037-3.805.27-1.967 2.174-3.242 4.204-3.102a5.94 5.94 0 0 1 3.501 1.413c1.128.957 2.027 2.185 3.143 3.157 1.675 1.46 1.956 4.104 4.3 4.966.91-2.292.156-4.648.219-6.97.129-4.267.044-8.537.044-11.998Zm.144 37.773c-.063-.599-.037-1.26-.211-1.867-1.345-4.725-2.832-9.402-5.091-13.788-.98-1.9-1.997-3.79-3.601-5.254-.259-.237-.684-.296-1.032-.432-.107.399-.396.854-.296 1.186 2.208 7.166 5.465 13.88 8.93 20.5.099.188.617.214.935.203.118-.004.226-.33.366-.548Zm18.684-12.856c-.134-.266-.185-.495-.33-.614-.096-.077-.362-.059-.488.019-2.388 1.49-4.1 3.587-5.494 6.005-2.352 4.078-3.675 8.508-4.629 13.07-.078.363.177.795.281 1.195.266-.211.625-.367.787-.64 3.243-5.45 6.375-10.96 8.981-16.75.341-.761.611-1.56.892-2.285Z"/><path fill="#FF6463" d="M245.72 110.971c-.174 1.024-.163 2.152-.562 3.113-2.045 4.925-4.245 9.795-7.107 14.298-1.649 2.592-4.115 2.758-6.559.684-1.128-.958-2.259-2.015-3.058-3.246-3.332-5.132-5.084-10.756-4.844-16.931.052-1.316.425-2.489 1.328-3.505 1.427-1.609 3.379-1.986 5.154-.829.887.577 1.708 1.269 2.496 1.982.939.851 1.664 2.174 2.743 2.563 1.342.484 1.83-1.428 2.951-1.934.769-.351 1.482-.839 2.263-1.154 2.514-1.013 4.869.392 5.095 3.006.059.64.066 1.28.1 1.953ZM66.486 121.052c-.903 3.467-2.416 6.924-4.479 10.163-4.098 6.432-10.332 11.958-18.274 14.787-10.048 3.573-19.527 2.04-28.11-4.247-5.695-4.171-9.764-9.459-12.286-15.67-.988-2.363-1.735-4.865-2.27-7.492a22.043 22.043 0 0 1-.377-2.826c-.241-3.206.221-6.432 1.196-9.595a41.335 41.335 0 0 1 2.397-6.075c1.312-2.647 2.888-5.087 4.782-7.304a34.656 34.656 0 0 1 7.368-6.462c2.425-1.587 5.076-2.68 7.892-3.173a78.215 78.215 0 0 1 6.234-.85 72.23 72.23 0 0 1 11.895-.254c3.699.284 7.02 1.504 10.216 3.477 3.593 2.218 6.515 4.898 8.828 8.038a31.253 31.253 0 0 1 4.109 7.652c.376.998.713 2.016 1.008 3.08.747 2.638.684 5.265.892 7.913.132 2.849-.225 5.843-1.021 8.838Z"/><path fill="#DF4047" d="M66.485 121.052c-.903 3.467-2.416 6.924-4.479 10.163-.482.096-.978.189-1.47.275-6.968 1.186-13.945 2.131-21.606 2.006-7.513.443-15.313-1.134-23.1-3.226-4.267-1.157-8.438-2.532-12.497-4.181-.988-2.363-1.735-4.865-2.27-7.493a21.995 21.995 0 0 1-.377-2.826c8.07 4.046 16.75 6.254 25.515 8.217 2.03.453 4.171.482 6.264.568 8.973.357 17.94.053 26.788-1.566 2.469-.453 4.865-1.117 7.232-1.937ZM65.601 101.221c-6.316 2.555-12.83 4.287-19.642 4.875-2.85.251-5.632 1.124-7.493.81-6.987-.053-12.84-1.008-18.592-2.344-5.265-1.219-10.487-2.647-15.597-4.465 1.312-2.647 2.89-5.087 4.783-7.304 3.606 1.147 7.281 2.082 10.973 3.017 6.528 1.65 13.105 2.47 19.831 2.198a67.44 67.44 0 0 0 21.629-4.435 31.182 31.182 0 0 1 4.108 7.648Z"/><path fill="#23221E" d="M59.528 56.843c-.198-2.638-1.943-4.099-4.623-3.91-1.379.105-2.628.545-3.699 1.378a56.55 56.55 0 0 0-3.92 3.322c-2.522 2.363-4.498 5.169-6.432 8.028-.135.198-.535.261-.83.314-.062 0-.25-.294-.26-.463-.275-3.804-.652-7.598-.757-11.403-.212-7.241-.252-14.493-.377-21.744a28.225 28.225 0 0 0-.189-2.85c-.115-.83-.704-1.335-1.48-1.556-.767-.212-1.996.568-2.314 1.312-.545 1.282-.545 2.647-.347 3.94 1.018 6.643.169 13.346.916 21.335 0 3.249.01 7.83-.01 12.4 0 .757-.126 1.514-.222 2.261-.02.136-.198.347-.274.337a.723.723 0 0 1-.492-.25c-2.324-3.028-4.582-6.105-6.948-9.09-1.924-2.44-4.392-4.204-7.314-5.308-2.416-.902-4.581-.357-6.36 1.325-1.735 1.64-1.49 3.785-.882 5.874.159.545.41 1.07.651 1.586 2.28 4.908 5.265 9.281 9.562 12.662 2.542 1.987 5.044 4.036 7.628 5.96.463.356.946.703 1.418 1.05 1.524 1.095 3.322 1.851 5.034 2.658.724.347 1.47.096 2.06-.516 1.123-1.157 2.26-2.3 3.384-3.447 2.092-2.112 4.17-4.224 6.18-6.399 3.236-3.5 6.336-7.126 8.828-11.224 1.415-2.327 2.268-4.81 2.07-7.582Zm-40.914 7.42c-.622-1.167-1.177-2.397-1.587-3.646-.125-.39.347-.968.536-1.408.525.043.955-.043 1.262.126 1.157.641 2.416 1.21 3.375 2.092 4.822 4.488 8.355 9.899 11.056 15.868.053.136.033.453 0 .463-.314.063-.757.241-.956.096-5.34-3.745-10.553-7.632-13.686-13.591Zm34.565-1.253c-2.132 3.395-4.773 6.38-7.526 9.29-3.457 3.657-4.402 4.35-4.541 3.323-.274-2.06 1.094-3.53 1.977-5.14 2.584-4.687 5.675-8.987 10.037-12.222.285-.212.757-.367 1.041-.275.285.096.443.546.652.853.042 1.62-.84 2.902-1.64 4.171Z"/><path fill="#FFAF00" d="M105.735 161.663c-.051-2.535.844-5.381 1.659-8.224.767-2.663 1.826-5.243 2.622-7.9 1.27-4.242.513-4.242-2.134-5.875-1.89-1.168-3.812-2.297-5.619-3.591-3.202-2.291-5.92-5.04-7.585-8.695-1.726-3.793-1.19-6.738 2.005-9.45 3.334-2.824 7.364-4.216 11.603-4.973 3.093-.552 6.209-.989 9.325-1.399 1.678-.222 2.608-1.101 3.163-2.67.928-2.615 1.919-5.214 3.02-7.759a104.013 104.013 0 0 1 3.581-7.508c.869-1.64 2.117-3.042 3.626-4.165 2.878-2.143 6.603-1.736 8.984.979 1.245 1.421 2.018 3.109 2.593 4.874 1.091 3.34 2.162 6.69 3.128 10.069.764 2.672.876 2.733 3.302 2.262 5.833-1.136 11.757-1.415 17.693-1.351 3.828.042 7.274 1.133 10.245 3.635 3.527 2.965 4.008 6.636 1.473 10.91-.924 1.559-2.323 2.891-3.69 4.12-3.732 3.35-7.804 6.244-12.245 8.599-2.303 1.22-2.287 1.29-1.508 3.902a2815.034 2815.034 0 0 1 4.547 15.431c.735 2.516.799 5.121.863 7.711.026 1.1-.099 2.233-.356 3.301-.719 2.972-2.99 4.749-6.016 4.807-1.691.032-3.28-.363-4.82-1.113-3.885-1.89-7.219-4.438-10.056-7.727-2.416-2.801-5.044-5.42-7.63-8.073-1.046-1.072-1.646-.969-2.689.292-1.418 1.713-2.837 3.427-4.203 5.179-3.79 4.867-8.404 8.865-13.233 12.632a12.352 12.352 0 0 1-2.365 1.444c-3.036 1.415-5.939.523-7.698-2.284-1.325-2.121-1.752-4.451-1.585-7.39Z"/><path fill="#23221E" d="M157.803 62.204c-.193-2.56-1.887-3.978-4.489-3.796-1.338.103-2.551.53-3.591 1.338a54.878 54.878 0 0 0-3.805 3.225c-2.448 2.295-4.367 5.019-6.244 7.794-.132.193-.52.254-.806.305-.061 0-.244-.285-.253-.45-.267-3.692-.632-7.376-.735-11.07-.205-7.03-.244-14.07-.366-21.11a27.141 27.141 0 0 0-.183-2.765c-.112-.806-.683-1.297-1.437-1.512-.745-.205-1.938.552-2.246 1.274-.53 1.245-.53 2.57-.337 3.825.988 6.45.163 12.957.888 20.712 0 3.155.01 7.602-.009 12.04 0 .734-.122 1.47-.215 2.194-.019.132-.193.337-.266.328a.7.7 0 0 1-.478-.244c-2.256-2.94-4.448-5.927-6.745-8.824-1.868-2.368-4.265-4.082-7.101-5.154-2.346-.876-4.447-.346-6.174 1.287-1.684 1.592-1.45 3.674-.856 5.702.154.53.397 1.04.632 1.54 2.214 4.765 5.111 9.01 9.283 12.293 2.467 1.928 4.896 3.918 7.405 5.785.449.347.918.684 1.377 1.02 1.479 1.063 3.225 1.797 4.887 2.58.702.337 1.428.094 1.999-.5 1.091-1.123 2.194-2.233 3.285-3.347 2.032-2.05 4.05-4.1 6.001-6.212 3.141-3.398 6.151-6.918 8.57-10.897 1.377-2.259 2.201-4.668 2.009-7.36Zm-39.718 7.204c-.603-1.133-1.142-2.326-1.54-3.54-.122-.378.337-.936.52-1.366.51.042.927-.042 1.226.122 1.123.622 2.345 1.174 3.276 2.03 4.681 4.358 8.111 9.611 10.733 15.406.051.132.032.44 0 .45-.305.06-.735.233-.927.092-5.189-3.635-10.249-7.409-13.288-13.194Zm33.554-1.216c-2.07 3.295-4.633 6.193-7.306 9.02-3.357 3.548-4.274 4.222-4.409 3.224-.266-1.999 1.062-3.427 1.919-4.99 2.509-4.55 5.509-8.724 9.745-11.865.276-.205.734-.356 1.01-.266.276.093.43.53.632.828.042 1.572-.815 2.817-1.591 4.049Z"/><path fill="#FFE5CB" d="M124.723 148.07c-.061.391.003 1.001-.244 1.431a458.563 458.563 0 0 1-5.881 9.924c-.266.437-.793.831-1.28.979-.469.141-1.146.093-1.537-.167-.395-.26-.568-.873-.796-1.351-.068-.144-.042-.378.025-.539 1.679-4.085 3.954-7.823 6.626-11.324.655-.859 2.33-.564 2.802.398.08.161.147.331.285.649ZM156.715 159.545c-.549-.276-1.213-.391-1.486-.783-.947-1.357-1.871-2.756-2.586-4.242-1.117-2.323-2.112-4.707-3.033-7.114-.275-.722.27-1.424.921-1.841.684-.437 1.396-.344 2.054.125.148.106.308.224.398.375 2.073 3.498 3.809 7.162 5.269 10.952.173.449.032 1.158-.225 1.588-.25.414-.844.622-1.312.94ZM114.742 126.524c-2.759-.225-5.496-.443-8.105-1.405a6.958 6.958 0 0 1-1.87-1.075c-.591-.469-.912-1.133-.617-1.929.283-.757.905-1.107 1.634-1.302.173-.045.378-.065.545-.013 3.87 1.164 7.887 1.498 11.853 2.117.177.029.344.126.507.203.7.337 1.21.898 1.197 1.659a1.543 1.543 0 0 1-1.341 1.52c-1.255.174-2.535.158-3.803.225ZM157.171 123.016c-.837-.055-1.495-.341-1.794-1.091-.314-.793.077-1.541.649-1.938 3.019-2.096 6.273-3.723 9.898-4.483.325-.067.719.074 1.05.199.718.273 1.299.773 1.261 1.579-.026.494-.247 1.245-.6 1.411-3.119 1.483-6.283 2.869-9.45 4.249-.311.138-.719.054-1.014.074ZM133.58 105.13c.151-1.909.205-3.376.401-4.82.129-.953.767-1.63 1.646-2.04.674-.312 2.33.336 2.282.975-.238 3.247-.514 6.498-.918 9.729-.09.715-.95 1.139-1.71.962-.469-.109-1.136-.542-1.22-.933-.285-1.412-.369-2.869-.481-3.873Z"/></svg>